<?xml version="1.0" encoding="UTF-8"?>
<svg id="Layer_1" xmlns="http://www.w3.org/2000/svg" xmlns:xlink="http://www.w3.org/1999/xlink" version="1.1" viewBox="0 0 48 48">
  <!-- Generator: Adobe Illustrator 29.7.1, SVG Export Plug-In . SVG Version: 2.1.1 Build 8)  -->
  <defs>
    <style>
      .st0 {
        fill: url(#linear-gradient);
      }

      .st1 {
        fill: #fff;
      }
    </style>
    <linearGradient id="linear-gradient" x1="7.19" y1="42.81" x2="43.94" y2="6.06" gradientTransform="translate(0 50) scale(1 -1)" gradientUnits="userSpaceOnUse">
      <stop offset="0" stop-color="#2aa4f4"/>
      <stop offset="1" stop-color="#007ad9"/>
    </linearGradient>
  </defs>
  <path class="st0" d="M24,0C10.74,0,0,10.74,0,24s10.74,24,24,24,24-10.74,24-24S37.26,0,24,0Z"/>
  <path class="st1" d="M27.25,30.36h6.21l.98-6.31h-7.19v-3.45c0-2.62.86-4.95,3.31-4.95h3.94v-5.51c-.69-.09-2.16-.3-4.92-.3-5.78,0-9.16,3.05-9.16,10v4.2h-5.94v6.31h5.94v17.34c1.18.18,2.37.3,3.59.3,1.11,0,2.18-.1,3.25-.24v-17.39Z"/>
</svg>