<?xml version="1.0" encoding="UTF-8"?>
<svg id="Layer_2" data-name="Layer 2" xmlns="http://www.w3.org/2000/svg" viewBox="0 0 48 48">
  <defs>
    <style>
      .cls-1 {
        fill: #58595b;
      }

      .cls-2 {
        fill: #fff;
      }
    </style>
  </defs>
  <g id="Layer_1-2" data-name="Layer 1">
    <path class="cls-1" d="M24,0C10.74,0,0,10.74,0,24s10.74,24,24,24,24-10.74,24-24S37.26,0,24,0Z"/>
    <path class="cls-2" d="M27.25,30.36h6.21l.98-6.31h-7.19v-3.45c0-2.62.86-4.95,3.31-4.95h3.94v-5.51c-.69-.09-2.16-.3-4.92-.3-5.78,0-9.16,3.05-9.16,10v4.2h-5.94v6.31h5.94v17.34c1.18.18,2.37.3,3.59.3,1.11,0,2.18-.1,3.25-.24v-17.39h0Z"/>
  </g>
</svg>