<?xml version="1.0" encoding="UTF-8"?>
<svg id="Layer_2" data-name="Layer 2" xmlns="http://www.w3.org/2000/svg" viewBox="0 0 48 48">
  <defs>
    <style>
      .cls-1 {
        fill: #fff;
      }

      .cls-1, .cls-2, .cls-3, .cls-4 {
        fill-rule: evenodd;
      }

      .cls-2 {
        fill: #bfbfbf;
      }

      .cls-3 {
        fill: #58595b;
      }

      .cls-4 {
        fill: #7a7a7a;
      }
    </style>
  </defs>
  <g id="Layer_1-2" data-name="Layer 1">
    <path class="cls-3" d="M24,0h0c13.25,0,24,10.74,24,24h0c0,13.26-10.75,24-24,24h0C10.74,48,0,37.26,0,24h0C0,10.74,10.74,0,24,0Z"/>
    <g>
      <path class="cls-4" d="M30.4,19.84c1.94,1.39,4.31,2.2,6.87,2.2v-4.93c-.49,0-.97-.05-1.44-.15v3.88c-2.56,0-4.93-.81-6.87-2.2v10.05c0,5.02-4.08,9.1-9.12,9.1-1.88,0-3.62-.57-5.07-1.54,1.66,1.7,3.97,2.74,6.51,2.74,5.04,0,9.12-4.08,9.12-9.1v-10.05h0ZM32.18,14.86c-1-1.08-1.63-2.48-1.78-4.02v-.64h-1.36c.34,1.97,1.52,3.64,3.14,4.66h0ZM17.96,32.39c-.55-.72-.85-1.61-.85-2.52,0-2.3,1.87-4.16,4.16-4.16.43,0,.86.06,1.27.2v-5.04c-.48-.06-.96-.1-1.44-.09v3.92c-.41-.14-.84-.2-1.27-.2-2.3,0-4.16,1.87-4.16,4.16,0,1.63.93,3.03,2.3,3.72h-.01,0Z"/>
      <path class="cls-1" d="M28.95,18.63c1.94,1.39,4.31,2.2,6.87,2.2v-3.88c-1.43-.31-2.69-1.06-3.65-2.09-1.63-1.02-2.8-2.69-3.14-4.66h-3.59v19.68c0,2.3-1.87,4.15-4.16,4.15-1.35,0-2.56-.64-3.32-1.65-1.36-.69-2.3-2.09-2.3-3.72,0-2.3,1.87-4.16,4.16-4.16.44,0,.86.07,1.27.2v-3.92c-4.94.1-8.92,4.14-8.92,9.1,0,2.48,1,4.73,2.59,6.36,1.45.97,3.19,1.54,5.07,1.54,5.04,0,9.12-4.08,9.12-9.1v-10.06h0Z"/>
      <path class="cls-2" d="M35.83,16.95v-1.04c-1.29,0-2.56-.36-3.65-1.04.97,1.06,2.25,1.79,3.65,2.09h0ZM29.02,10.2c-.04-.18-.06-.38-.07-.57v-.64h-4.96v19.68c0,2.3-1.87,4.15-4.16,4.15-.68,0-1.31-.16-1.88-.44.76,1,1.97,1.65,3.32,1.65,2.3,0,4.16-1.86,4.16-4.15V10.2h3.6-.01ZM21.1,20.78v-1.12c-.42-.06-.84-.09-1.25-.09-5.04,0-9.12,4.08-9.12,9.1,0,3.16,1.61,5.93,4.04,7.57-1.61-1.65-2.59-3.89-2.59-6.36,0-4.96,3.98-9,8.92-9.1Z"/>
    </g>
  </g>
</svg>