<?xml version="1.0" encoding="UTF-8"?>
<svg id="Layer_1" xmlns="http://www.w3.org/2000/svg" version="1.1" viewBox="0 0 48 48">
  <!-- Generator: Adobe Illustrator 29.7.1, SVG Export Plug-In . SVG Version: 2.1.1 Build 8)  -->
  <defs>
    <style>
      .st0 {
        fill: #fd0000;
      }

      .st1 {
        fill: #fff;
      }
    </style>
  </defs>
  <circle class="st0" cx="24" cy="24" r="24"/>
  <path class="st1" d="M39.33,16.3c-.37-1.38-1.45-2.46-2.83-2.83-2.5-.67-12.5-.67-12.5-.67,0,0-10.01,0-12.5.67-1.38.37-2.46,1.45-2.83,2.83-.67,2.5-.67,7.7-.67,7.7,0,0,0,5.21.67,7.7.37,1.38,1.45,2.46,2.83,2.83,2.5.67,12.5.67,12.5.67,0,0,10.01,0,12.5-.67,1.38-.37,2.46-1.45,2.83-2.83.67-2.5.67-7.7.67-7.7,0,0,0-5.21-.67-7.7ZM20.8,28.8v-9.6l8.31,4.8-8.31,4.8Z"/>
</svg>