<?xml version="1.0" encoding="UTF-8"?>
<svg id="Layer_2" data-name="Layer 2" xmlns="http://www.w3.org/2000/svg" viewBox="0 0 48 48">
  <defs>
    <style>
      .cls-1 {
        fill: #fff;
      }

      .cls-2 {
        fill: #808285;
      }
    </style>
  </defs>
  <g id="Layer_1-2" data-name="Layer 1">
    <circle class="cls-2" cx="24" cy="24" r="24"/>
    <path class="cls-1" d="M39.33,16.3c-.37-1.38-1.45-2.46-2.83-2.83-2.5-.67-12.5-.67-12.5-.67,0,0-10.01,0-12.5.67-1.38.37-2.46,1.45-2.83,2.83-.67,2.5-.67,7.7-.67,7.7,0,0,0,5.21.67,7.7.37,1.38,1.45,2.46,2.83,2.83,2.5.67,12.5.67,12.5.67,0,0,10.01,0,12.5-.67,1.38-.37,2.46-1.45,2.83-2.83.67-2.5.67-7.7.67-7.7,0,0,0-5.21-.67-7.7ZM20.8,28.8v-9.6l8.31,4.8-8.31,4.8Z"/>
  </g>
</svg>