<?xml version="1.0" encoding="UTF-8"?><svg id="b" xmlns="http://www.w3.org/2000/svg" width="278.07" height="372.66" viewBox="0 0 278.07 372.66"><defs><style>.e{fill:#fff;}.f{fill:#0098db;fill-rule:evenodd;}</style></defs><g id="c"><g id="d"><path class="f" d="M0,0h278.07v372.66H0V0h0ZM22.7,255.37h28.37v-102.15h73.77v102.15h130.52V22.7H22.7v232.67h0ZM227,51.07H51.07v73.77h175.92V51.07h0ZM153.22,227v-73.77h73.77v73.77h-73.77Z"/><path class="e" d="M24.88,284.77h14.79v2.97h-11.9v7.35h10.46v2.89h-10.46v11.02h-2.89v-24.23ZM52.08,299.07l-3.24-10.7-3.44,10.7h6.68ZM47.34,284.77h3.26l7.74,24.23h-3.17l-2.16-7.26h-8.44l-2.3,7.26h-2.96l8.03-24.23h0ZM69.95,284.11c2.7,0,4.79.81,6.28,2.43s2.32,3.45,2.48,5.51h-2.81c-.32-1.56-.96-2.8-1.91-3.71-.95-.91-2.29-1.37-4.01-1.37-2.1,0-3.8.84-5.08,2.52-1.29,1.68-1.94,4.24-1.94,7.71,0,2.84.58,5.14,1.75,6.9,1.17,1.77,2.91,2.65,5.22,2.65,2.13,0,3.75-.93,4.86-2.79.59-.98,1.03-2.27,1.32-3.86h2.81c-.25,2.55-1.09,4.69-2.5,6.42-1.69,2.08-3.98,3.11-6.85,3.11-2.48,0-4.56-.85-6.24-2.56-2.22-2.25-3.32-5.73-3.32-10.44,0-3.57.83-6.51,2.5-8.79,1.8-2.48,4.28-3.73,7.45-3.73h0ZM85.57,284.77v14.98c0,1.76.29,3.23.87,4.39.86,1.76,2.31,2.63,4.35,2.63,2.45,0,4.11-.95,4.99-2.85.48-1.04.71-2.43.71-4.18v-14.98h2.93v13.61c0,2.98-.36,5.28-1.06,6.88-1.3,2.92-3.75,4.39-7.35,4.39s-6.04-1.46-7.33-4.39c-.71-1.6-1.06-3.9-1.06-6.88v-13.61h2.93ZM103.9,284.77h2.89v21.34h10.8v2.89h-13.69v-24.23ZM133.76,284.77v2.89h-7.18v21.34h-2.93v-21.34h-7.18v-2.89h17.3ZM134.74,284.77h3.37l6.12,11.65,6.12-11.65h3.38l-8.06,14.47v9.76h-2.89v-9.76l-8.06-14.47ZM173.16,284.11c3.77,0,6.55,1.37,8.36,4.13,1.41,2.14,2.12,4.89,2.12,8.23,0,3.62-.81,6.63-2.43,9.02-1.89,2.81-4.6,4.22-8.11,4.22-3.28,0-5.86-1.23-7.74-3.69-1.67-2.38-2.51-5.38-2.51-9.01,0-3.28.72-6.08,2.15-8.41,1.84-2.99,4.56-4.49,8.15-4.49ZM173.45,306.77c2.55,0,4.38-1.04,5.52-3.11,1.13-2.07,1.7-4.45,1.7-7.15,0-2.85-.65-5.14-1.97-6.87-1.31-1.74-3.1-2.61-5.38-2.61s-4.01.86-5.4,2.58c-1.39,1.72-2.09,4.26-2.09,7.61,0,2.69.59,4.95,1.79,6.79,1.19,1.84,3.13,2.76,5.81,2.76h0ZM187.36,284.77h14.79v2.97h-11.9v7.35h10.46v2.89h-10.46v11.02h-2.89v-24.23ZM33.7,339.47l-3.24-10.7-3.44,10.7h6.68ZM28.95,325.17h3.26l7.74,24.23h-3.17l-2.16-7.26h-8.44l-2.3,7.26h-2.96l8.03-24.23ZM52.5,336.27c1.35,0,2.43-.31,3.22-.92s1.18-1.73,1.18-3.33c0-1.73-.56-2.9-1.65-3.53-.59-.33-1.38-.5-2.37-.5h-7.05v8.28h6.68,0ZM42.93,325.17h9.87c1.62,0,2.96.27,4.02.81,2,1.03,3.01,2.94,3.01,5.72,0,1.45-.27,2.64-.79,3.56-.53.92-1.27,1.67-2.21,2.23.83.38,1.46.89,1.88,1.51.42.63.66,1.64.71,3.05l.1,3.25c.03.92.1,1.62.2,2.07.17.77.49,1.26.93,1.48v.55h-3.54c-.1-.21-.17-.48-.23-.81-.06-.33-.11-.96-.14-1.91l-.18-4.04c-.06-1.58-.58-2.65-1.55-3.19-.55-.29-1.42-.44-2.6-.44h-6.58v10.39h-2.89v-24.23h0ZM73.04,324.51c2.7,0,4.79.81,6.28,2.43,1.49,1.62,2.32,3.45,2.48,5.51h-2.81c-.32-1.56-.96-2.8-1.91-3.71-.95-.91-2.29-1.37-4.01-1.37-2.1,0-3.8.84-5.08,2.52-1.29,1.68-1.94,4.24-1.94,7.71,0,2.84.58,5.14,1.75,6.9,1.17,1.77,2.91,2.65,5.22,2.65,2.13,0,3.75-.93,4.86-2.79.59-.98,1.03-2.27,1.32-3.86h2.81c-.25,2.55-1.09,4.69-2.5,6.42-1.69,2.08-3.98,3.11-6.85,3.11-2.48,0-4.56-.85-6.24-2.56-2.22-2.25-3.32-5.73-3.32-10.44,0-3.57.83-6.51,2.5-8.79,1.8-2.48,4.28-3.73,7.45-3.73h0ZM85.59,325.17h2.92v10.02h11.09v-10.02h2.92v24.23h-2.92v-11.33h-11.09v11.33h-2.92v-24.23ZM107.64,325.17h2.92v24.23h-2.92v-24.23ZM130.76,325.17v2.89h-7.18v21.34h-2.93v-21.34h-7.18v-2.89h17.3ZM133.68,325.17h15.54v2.97h-12.73v7.35h11.77v2.8h-11.77v8.21h12.95v2.89h-15.76v-24.23h0ZM162.21,324.51c2.7,0,4.79.81,6.28,2.43,1.49,1.62,2.32,3.45,2.48,5.51h-2.81c-.32-1.56-.96-2.8-1.91-3.71-.95-.91-2.29-1.37-4.01-1.37-2.1,0-3.8.84-5.08,2.52-1.29,1.68-1.94,4.24-1.94,7.71,0,2.84.58,5.14,1.75,6.9,1.17,1.77,2.91,2.65,5.22,2.65,2.13,0,3.75-.93,4.86-2.79.59-.98,1.03-2.27,1.32-3.86h2.81c-.25,2.55-1.09,4.69-2.5,6.42-1.69,2.08-3.98,3.11-6.85,3.11-2.48,0-4.56-.85-6.24-2.56-2.22-2.25-3.32-5.73-3.32-10.44,0-3.57.83-6.51,2.5-8.79,1.8-2.48,4.28-3.73,7.45-3.73h0ZM190.21,325.17v2.89h-7.18v21.34h-2.93v-21.34h-7.18v-2.89h17.3ZM195.99,325.17v14.98c0,1.76.29,3.23.87,4.39.86,1.76,2.31,2.63,4.35,2.63,2.45,0,4.11-.95,4.99-2.85.48-1.04.71-2.43.71-4.18v-14.98h2.93v13.61c0,2.98-.36,5.28-1.06,6.88-1.3,2.92-3.75,4.39-7.35,4.39s-6.04-1.46-7.33-4.39c-.71-1.6-1.06-3.9-1.06-6.88v-13.61h2.93ZM224.23,336.27c1.35,0,2.43-.31,3.22-.92s1.18-1.73,1.18-3.33c0-1.73-.56-2.9-1.65-3.53-.59-.33-1.38-.5-2.37-.5h-7.05v8.28h6.68ZM214.67,325.17h9.87c1.62,0,2.96.27,4.02.81,2,1.03,3.01,2.94,3.01,5.72,0,1.45-.27,2.64-.79,3.56-.53.92-1.27,1.67-2.21,2.23.83.38,1.46.89,1.88,1.51.42.63.66,1.64.71,3.05l.1,3.25c.03.92.1,1.62.2,2.07.17.77.49,1.26.93,1.48v.55h-3.54c-.1-.21-.17-.48-.23-.81-.06-.33-.11-.96-.14-1.91l-.18-4.04c-.06-1.58-.58-2.65-1.55-3.19-.55-.29-1.42-.44-2.6-.44h-6.58v10.39h-2.89v-24.23h0ZM236.06,325.17h15.54v2.97h-12.73v7.35h11.77v2.8h-11.77v8.21h12.95v2.89h-15.76v-24.23h0Z"/></g></g></svg>